# Blender v2.65 (sub 0) OBJ File: 'lwjglgamerock.blend'
# www.blender.org
mtllib lwjglgamerock.mtl
o Sphere
v -0.887244 0.887244 -0.000000
v -1.159240 0.480173 -0.000000
v -1.254753 -0.000000 -0.000000
v -1.159240 -0.480173 -0.000000
v -0.887244 -0.887244 -0.000000
v -0.480173 -1.159240 -0.000000
v -0.339534 1.159241 -0.339534
v -0.627376 0.887244 -0.627376
v -0.819707 0.480173 -0.819707
v -0.887244 -0.000000 -0.887244
v -0.819707 -0.480173 -0.819707
v -0.627376 -0.887244 -0.627376
v -0.339534 -1.159240 -0.339534
v -0.000000 1.159241 -0.480173
v -0.000000 0.887244 -0.887244
v -0.000000 0.480173 -1.159240
v -0.000000 -0.000000 -1.254753
v -0.000000 -0.480173 -1.159240
v -0.000000 -0.887244 -0.887244
v -0.000000 -1.159240 -0.480173
v -0.000000 1.254753 0.000000
v 0.339533 1.159241 -0.339534
v 0.627376 0.887244 -0.627376
v 0.819707 0.480173 -0.819706
v 0.887244 -0.000000 -0.887244
v 0.819707 -0.480173 -0.819706
v 0.627376 -0.887244 -0.627376
v 0.339533 -1.159240 -0.339534
v 0.480173 1.159241 0.000000
v 0.887244 0.887244 0.000000
v 1.159240 0.480173 0.000000
v 1.254753 -0.000000 0.000000
v 1.159240 -0.480173 0.000000
v 0.887244 -0.887244 0.000000
v 0.480173 -1.159240 0.000000
v -0.000000 -1.254753 -0.000000
v 0.339533 1.159241 0.339534
v 0.627376 0.887244 0.627376
v 0.819706 0.480173 0.819707
v 0.887244 -0.000000 0.887244
v 0.819706 -0.480173 0.819707
v 0.627376 -0.887244 0.627376
v 0.339533 -1.159240 0.339534
v -0.000000 1.159241 0.480173
v -0.000000 0.887244 0.887244
v -0.000000 0.480173 1.159240
v -0.000000 -0.000000 1.254753
v -0.000000 -0.480173 1.159240
v -0.000000 -0.887244 0.887244
v -0.000000 -1.159240 0.480173
v -0.339534 1.159241 0.339534
v -0.627377 0.887244 0.627376
v -0.819707 0.480173 0.819706
v -0.887245 -0.000000 0.887244
v -0.819707 -0.480173 0.819706
v -0.627377 -0.887244 0.627376
v -0.339534 -1.159240 0.339534
v -0.480173 1.159241 -0.000000
vt 0.522101 0.478323
vt 0.541105 0.558678
vt 0.381219 0.559169
vt 0.399729 0.478698
vt 0.541627 0.728808
vt 0.523066 0.792682
vt 0.400694 0.793057
vt 0.381741 0.729298
vt 0.547962 0.646637
vt 0.374902 0.647168
vt 0.493843 0.417804
vt 0.427616 0.418007
vt 0.374639 0.618590
vt 0.322486 0.593202
vt 0.322687 0.471402
vt 0.374902 0.459451
vt 0.629161 0.402167
vt 0.542840 0.417804
vt 0.520791 0.295363
vt 0.608790 0.289047
vt 0.937144 0.110436
vt 0.999799 0.087744
vt 1.000000 0.209543
vt 0.937253 0.176353
vt 0.250326 0.561062
vt 0.250434 0.495145
vt 0.459031 0.401645
vt 0.438660 0.288525
vt 0.704852 0.357115
vt 0.689261 0.270536
vt 0.374902 0.269572
vt 0.375277 0.147199
vt 0.439151 0.128638
vt 0.521322 0.122303
vt 0.609281 0.129160
vt 0.914019 0.294998
vt 0.890721 0.222601
vt 0.203902 0.448897
vt 0.236706 0.385947
vt 0.689636 0.148164
vt 0.305809 0.359088
vt 0.221920 0.385947
vt 0.167388 0.316916
vt 0.234560 0.268895
vt 0.544122 0.000000
vt 0.630345 0.016166
vt 0.792223 0.294050
vt 0.824805 0.222088
vt 0.137987 0.449410
vt 0.114910 0.386896
vt 0.374703 0.304781
vt 0.297584 0.207156
vt 0.705758 0.061682
vt 0.075466 0.236136
vt 0.114458 0.163351
vt 0.346866 0.141099
vt 0.167587 0.092916
vt 0.226764 0.035555
vt 0.705959 0.207254
vt 0.778119 0.175114
vt 0.106295 0.343910
vt 0.056547 0.300192
vt 0.374902 0.080780
vt 0.282980 0.000000
vt 0.000000 0.190927
vt 0.015857 0.104282
vt 0.957304 0.496801
vt 0.966549 0.584038
vt 0.842818 0.597020
vt 0.842991 0.508795
vt 0.705758 0.085455
vt 0.778010 0.109197
vt 0.028646 0.473691
vt 0.091300 0.496383
vt 0.091192 0.562301
vt 0.028445 0.595491
vt 0.060862 0.028981
vt 0.917942 0.418001
vt 0.830451 0.427181
vt 0.829955 0.678425
vt 0.806363 0.740617
vt 0.684350 0.731240
vt 0.670538 0.666174
vt 0.670265 0.583760
vt 0.683574 0.496544
vt 0.791739 0.000000
vt 0.824543 0.062949
vt 0.137724 0.608549
vt 0.114426 0.680945
vt 0.708438 0.417804
vt 0.203640 0.608035
vt 0.169144 0.527064
vt 0.859301 0.141116
vt 0.890458 0.063463
vt 0.236221 0.679997
vt 0.261929 0.731994
vt 0.102795 0.733233
vt 0.654099 0.537614
vt 0.670265 0.623837
vt 0.913535 0.000948
vt 0.654621 0.707743
vt 0.608583 0.462201
vn -0.786151 -0.525290 -0.325634
vn -0.786151 0.525289 -0.325635
vn -0.908663 -0.180744 -0.376380
vn -0.541420 -0.810291 -0.224264
vn -0.908663 0.180744 -0.376381
vn -0.325634 0.525290 -0.786151
vn -0.376381 -0.180744 -0.908663
vn -0.224263 -0.810290 -0.541420
vn -0.224263 0.810291 -0.541420
vn -0.376381 0.180744 -0.908663
vn -0.325634 -0.525290 -0.786151
vn 0.325635 0.525289 -0.786151
vn 0.376381 -0.180744 -0.908663
vn 0.224263 -0.810290 -0.541420
vn 0.224263 0.810291 -0.541420
vn 0.376381 0.180744 -0.908663
vn 0.325635 -0.525290 -0.786151
vn 0.786151 0.525289 -0.325634
vn 0.908663 -0.180744 -0.376381
vn 0.541420 -0.810291 -0.224263
vn 0.541420 0.810291 -0.224263
vn 0.908663 0.180744 -0.376381
vn 0.786151 -0.525290 -0.325634
vn 0.786151 0.525289 0.325635
vn 0.908663 -0.180744 0.376381
vn 0.541420 -0.810290 0.224263
vn 0.541420 0.810291 0.224263
vn 0.908663 0.180744 0.376381
vn 0.786151 -0.525290 0.325634
vn 0.325634 0.525289 0.786151
vn 0.376380 -0.180744 0.908663
vn 0.224263 -0.810291 0.541420
vn 0.224263 0.810291 0.541419
vn 0.376380 0.180744 0.908663
vn 0.325634 -0.525290 0.786151
vn -0.325635 0.525289 0.786151
vn -0.376381 -0.180744 0.908663
vn -0.224263 -0.810291 0.541419
vn -0.224263 0.810291 0.541419
vn -0.376381 0.180744 0.908663
vn -0.325635 -0.525290 0.786151
vn -0.194456 0.977599 -0.080546
vn -0.194456 -0.977599 -0.080546
vn -0.541419 0.810291 -0.224264
vn -0.080546 0.977599 -0.194456
vn -0.080546 -0.977599 -0.194456
vn 0.080546 0.977599 -0.194456
vn 0.080546 -0.977599 -0.194456
vn 0.194456 0.977599 -0.080546
vn 0.194456 -0.977599 -0.080546
vn 0.194456 0.977599 0.080546
vn 0.194456 -0.977599 0.080546
vn 0.080546 0.977599 0.194456
vn 0.080546 -0.977599 0.194456
vn -0.080546 0.977599 0.194456
vn -0.080546 -0.977599 0.194456
vn -0.786151 0.525289 0.325634
vn -0.908664 -0.180744 0.376380
vn -0.541420 -0.810291 0.224263
vn -0.541419 0.810291 0.224263
vn -0.908663 0.180744 0.376380
vn -0.786151 -0.525290 0.325634
vn -0.194456 0.977599 0.080546
vn -0.194456 -0.977599 0.080546
usemtl Material.001
s off
f 5/1/1 4/2/1 11/3/1
f 5/1/1 11/3/1 12/4/1
f 2/5/2 1/6/2 8/7/2
f 2/5/2 8/7/2 9/8/2
f 4/2/3 3/9/3 10/10/3
f 4/2/3 10/10/3 11/3/3
f 6/11/4 5/1/4 12/4/4
f 6/11/4 12/4/4 13/12/4
f 3/9/5 2/5/5 9/8/5
f 3/9/5 9/8/5 10/10/5
f 9/13/6 8/14/6 15/15/6
f 9/13/6 15/15/6 16/16/6
f 11/17/7 10/18/7 17/19/7
f 11/17/7 17/19/7 18/20/7
f 13/21/8 12/22/8 19/23/8
f 13/21/8 19/23/8 20/24/8
f 8/14/9 7/25/9 14/26/9
f 8/14/9 14/26/9 15/15/9
f 10/18/10 9/27/10 16/28/10
f 10/18/10 16/28/10 17/19/10
f 12/29/11 11/17/11 18/20/11
f 12/29/11 18/20/11 19/30/11
f 16/28/12 15/31/12 23/32/12
f 16/28/12 23/32/12 24/33/12
f 18/20/13 17/19/13 25/34/13
f 18/20/13 25/34/13 26/35/13
f 20/24/14 19/23/14 27/36/14
f 20/24/14 27/36/14 28/37/14
f 15/15/15 14/26/15 22/38/15
f 15/15/15 22/38/15 23/39/15
f 17/19/16 16/28/16 24/33/16
f 17/19/16 24/33/16 25/34/16
f 19/30/17 18/20/17 26/35/17
f 19/30/17 26/35/17 27/40/17
f 24/41/18 23/42/18 30/43/18
f 24/41/18 30/43/18 31/44/18
f 26/35/19 25/34/19 32/45/19
f 26/35/19 32/45/19 33/46/19
f 28/37/20 27/36/20 34/47/20
f 28/37/20 34/47/20 35/48/20
f 23/39/21 22/38/21 29/49/21
f 23/39/21 29/49/21 30/50/21
f 25/51/22 24/41/22 31/44/22
f 25/51/22 31/44/22 32/52/22
f 27/40/23 26/35/23 33/46/23
f 27/40/23 33/46/23 34/53/23
f 31/44/24 30/43/24 38/54/24
f 31/44/24 38/54/24 39/55/24
f 33/56/25 32/52/25 40/57/25
f 33/56/25 40/57/25 41/58/25
f 35/48/26 34/47/26 42/59/26
f 35/48/26 42/59/26 43/60/26
f 30/43/27 29/61/27 37/62/27
f 30/43/27 37/62/27 38/54/27
f 32/52/28 31/44/28 39/55/28
f 32/52/28 39/55/28 40/57/28
f 34/63/29 33/56/29 41/58/29
f 34/63/29 41/58/29 42/64/29
f 39/55/30 38/54/30 45/65/30
f 39/55/30 45/65/30 46/66/30
f 41/67/31 40/68/31 47/69/31
f 41/67/31 47/69/31 48/70/31
f 43/60/32 42/59/32 49/71/32
f 43/60/32 49/71/32 50/72/32
f 38/73/33 37/74/33 44/75/33
f 38/73/33 44/75/33 45/76/33
f 40/57/34 39/55/34 46/66/34
f 40/57/34 46/66/34 47/77/34
f 42/78/35 41/67/35 48/70/35
f 42/78/35 48/70/35 49/79/35
f 46/80/36 45/81/36 52/82/36
f 46/80/36 52/82/36 53/83/36
f 48/70/37 47/69/37 54/84/37
f 48/70/37 54/84/37 55/85/37
f 50/72/38 49/71/38 56/86/38
f 50/72/38 56/86/38 57/87/38
f 45/76/39 44/75/39 51/88/39
f 45/76/39 51/88/39 52/89/39
f 47/69/40 46/80/40 53/83/40
f 47/69/40 53/83/40 54/84/40
f 49/79/41 48/70/41 55/85/41
f 49/79/41 55/85/41 56/90/41
f 58/91/42 21/92/42 7/25/42
f 36/93/43 6/94/43 13/21/43
f 1/95/44 58/91/44 7/25/44
f 1/95/44 7/25/44 8/14/44
f 7/25/45 21/92/45 14/26/45
f 36/93/46 13/21/46 20/24/46
f 14/26/47 21/92/47 22/38/47
f 36/93/48 20/24/48 28/37/48
f 22/38/49 21/92/49 29/49/49
f 36/93/50 28/37/50 35/48/50
f 29/49/51 21/92/51 37/74/51
f 36/93/52 35/48/52 43/60/52
f 37/74/53 21/92/53 44/75/53
f 36/93/54 43/60/54 50/72/54
f 44/75/55 21/92/55 51/88/55
f 36/93/56 50/72/56 57/87/56
f 1/95/57 2/96/57 53/97/57
f 1/95/57 53/97/57 52/89/57
f 55/98/58 54/99/58 3/9/58
f 55/98/58 3/9/58 4/2/58
f 57/87/59 56/86/59 5/100/59
f 57/87/59 5/100/59 6/94/59
f 58/91/60 1/95/60 52/89/60
f 58/91/60 52/89/60 51/88/60
f 54/99/61 53/101/61 2/5/61
f 54/99/61 2/5/61 3/9/61
f 56/102/62 55/98/62 4/2/62
f 56/102/62 4/2/62 5/1/62
f 51/88/63 21/92/63 58/91/63
f 36/93/64 57/87/64 6/94/64
