# Blender v2.65 (sub 0) OBJ File: 'lwjglfloorwindow.blend'
# www.blender.org
mtllib lwjglwindow.mtl
o Grid.001_Grid.000
v 0.857699 19.222221 -20.568642
v -0.857697 19.222221 -20.568642
v 0.665403 22.829695 -20.568642
v -0.665401 22.829695 -20.568642
v 0.857699 17.000000 -20.568644
v -0.857697 17.000000 -20.568644
v 0.000001 23.198071 -20.568642
v -0.857697 21.444443 -20.568642
v 0.857699 21.444443 -20.568642
v 0.000001 17.000000 -20.568644
v 0.000001 19.222221 -20.568642
v 0.000001 21.444443 -20.568642
vt 0.276787 0.358553
vt 0.138420 0.358554
vt 0.138421 0.000053
vt 0.276789 0.000054
vt 0.000053 0.000053
vt 0.000053 0.358554
vt 0.276788 0.717048
vt 0.138422 0.717050
vt 0.000056 0.717051
vt 0.138426 0.999947
vt 0.245769 0.940520
vt 0.031081 0.940522
vn 0.000000 -0.000001 1.000000
vn 0.000000 0.000000 1.000000
usemtl Material.002
s off
f 1/1/1 11/2/1 10/3/1
f 1/1/1 10/3/1 5/4/1
f 6/5/1 10/3/1 11/2/1
f 6/5/1 11/2/1 2/6/1
f 11/2/2 1/1/2 9/7/2
f 11/2/2 9/7/2 12/8/2
f 12/8/2 8/9/2 2/6/2
f 12/8/2 2/6/2 11/2/2
f 7/10/2 12/8/2 9/7/2
f 7/10/2 9/7/2 3/11/2
f 12/8/2 7/10/2 4/12/2
f 12/8/2 4/12/2 8/9/2
